<svg width="343" height="240" viewBox="0 0 343 240" fill="none" xmlns="http://www.w3.org/2000/svg">
<rect x="0.5" y="0.5" width="342" height="239" rx="23.5" fill="#F9FAFB"/>
<path d="M84 50H127.194C136.478 50 144 55.5027 144 62.2886V162.884C144 169.672 136.475 175.173 127.194 175.173H84" stroke="#D1D6DB" stroke-width="1.2" stroke-miterlimit="10"/>
<path d="M259 177L215.806 177C206.522 177 199 171.497 199 164.711L199 64.116C199 57.3276 206.525 51.8273 215.806 51.8273L259 51.8273" stroke="#D1D6DB" stroke-width="1.2" stroke-miterlimit="10"/>
<path d="M59.0477 96.354H65.3527V97.485H62.9217V97.823C62.9217 99.279 63.9227 100.683 65.7297 101.281L65.0147 102.36C63.7017 101.944 62.7527 101.047 62.2327 99.929C61.7257 101.138 60.7637 102.1 59.3857 102.568L58.6577 101.476C60.5037 100.852 61.5047 99.357 61.5047 97.823V97.485H59.0477V96.354ZM60.5427 106.819V103.101H61.9337V105.688H68.4467V106.819H60.5427ZM66.7177 103.881V95.496H68.1217V103.881H66.7177ZM77.599 95.483H78.99V98.759H80.602V99.903H78.99V103.842H77.599V95.483ZM70.436 101.892V96.419H75.571V97.563H71.827V100.748C73.998 100.735 75.194 100.67 76.546 100.384L76.689 101.502C75.207 101.814 73.881 101.892 71.372 101.892H70.436ZM71.658 106.819V102.984H73.049V105.688H79.445V106.819H71.658Z" fill="#333D4B"/>
<g clip-path="url(#clip0_11510_93610)">
<path d="M86.566 32H50.434C44.6715 32 40 36.6715 40 42.434V78.566C40 84.3285 44.6715 89 50.434 89H86.566C92.3285 89 97 84.3285 97 78.566V42.434C97 36.6715 92.3285 32 86.566 32Z" fill="#28BE5D"/>
<path d="M66.1693 70.0106C73.9905 70.0106 80.3309 63.6702 80.3309 55.849C80.3309 48.0278 73.9905 41.6875 66.1693 41.6875C58.3481 41.6875 52.0078 48.0278 52.0078 55.849C52.0078 63.6702 58.3481 70.0106 66.1693 70.0106Z" fill="white"/>
<path d="M76.7197 68.5671L69.6797 72.5L76.0063 83.8248L83.0464 79.8919L76.7197 68.5671Z" fill="#0D3F1F"/>
<path d="M79.6207 85.9288C81.8619 85.9288 83.6788 84.1119 83.6788 81.8707C83.6788 79.6294 81.8619 77.8125 79.6207 77.8125C77.3794 77.8125 75.5625 79.6294 75.5625 81.8707C75.5625 84.1119 77.3794 85.9288 79.6207 85.9288Z" fill="#96E9B3"/>
<path d="M61.5405 72.2014C57.3518 71.015 53.6156 68.236 51.3298 64.143C49.1166 60.1806 48.577 55.5916 49.8156 51.223C51.0514 46.8545 53.9173 43.2285 57.8798 41.0153C66.0628 36.4437 76.4388 39.3821 81.0104 47.5652C85.5821 55.7482 82.6436 66.1243 74.4605 70.6959C70.3675 72.9817 65.7292 73.3907 61.5405 72.2043V72.2014ZM69.2566 44.9545C66.4631 44.1626 63.3709 44.4353 60.6442 45.9582C58.0016 47.4346 56.0929 49.851 55.2662 52.7633C54.4395 55.6757 54.7992 58.736 56.2756 61.3786C59.3243 66.8321 66.2398 68.793 71.6961 65.7443C77.1495 62.6956 79.1105 55.7801 76.0617 50.3238C74.5388 47.5971 72.0471 45.7435 69.2537 44.9516L69.2566 44.9545Z" fill="#96E9B3"/>
<path d="M59.9104 57.8834C61.0303 57.8834 61.9381 56.9756 61.9381 55.8558C61.9381 54.7359 61.0303 53.8281 59.9104 53.8281C58.7906 53.8281 57.8828 54.7359 57.8828 55.8558C57.8828 56.9756 58.7906 57.8834 59.9104 57.8834Z" fill="#28BE5D"/>
<path d="M68.8531 64.089C70.3382 64.089 71.5421 62.885 71.5421 61.3999C71.5421 59.9148 70.3382 58.7109 68.8531 58.7109C67.368 58.7109 66.1641 59.9148 66.1641 61.3999C66.1641 62.885 67.368 64.089 68.8531 64.089Z" fill="#3FD599"/>
<path d="M70.762 48.6987C71.4262 48.3506 72.2181 48.8524 72.1862 49.6008L72.076 52.2608L71.9658 54.9208C71.9339 55.6692 71.1042 56.1044 70.4719 55.7011L68.2238 54.274L65.9757 52.8468C65.3433 52.4465 65.381 51.5095 66.0453 51.1615L68.4036 49.9286L70.762 48.6958V48.6987Z" fill="#166934"/>
</g>
<path d="M265.853 99.058H268.089V95.483H269.493V104.037H268.089V100.189H265.853V99.058ZM260.107 98.785L264.202 98.616C264.319 98.265 264.397 97.888 264.436 97.498H260.692V96.38H265.892C265.892 99.526 264.475 101.723 260.666 102.971L260.12 101.879C261.888 101.307 263.006 100.553 263.669 99.63L260.302 99.89L260.107 98.785ZM262.07 106.819V103.192H263.474V105.688H269.818V106.819H262.07ZM277.176 97.342H279.451V95.483H280.855V101.398H279.451V98.473H277.176V97.342ZM271.209 100.358C273.042 99.773 274.004 98.343 274.004 96.783V95.847H275.395V96.783C275.395 98.213 276.344 99.578 278.086 100.137L277.371 101.216C276.123 100.8 275.226 99.968 274.719 98.902C274.225 100.085 273.276 101.008 271.937 101.45L271.209 100.358ZM273.302 103.01V101.918H280.855V104.895H274.706V105.805H281.232V106.897H273.315V103.868H279.477V103.01H273.302ZM283.273 96.302H288.798V97.407H284.651V98.538H288.473V99.63H284.651V100.8C286.822 100.8 288.135 100.748 289.656 100.501L289.786 101.606C288.148 101.866 286.705 101.905 284.235 101.905H283.273V96.302ZM284.378 104.869C284.378 103.517 285.873 102.724 288.304 102.724C290.722 102.724 292.217 103.517 292.217 104.869C292.217 106.26 290.722 107.027 288.304 107.027C285.873 107.027 284.378 106.26 284.378 104.869ZM285.782 104.869C285.782 105.584 286.679 105.961 288.304 105.961C289.903 105.961 290.826 105.584 290.826 104.869C290.826 104.18 289.903 103.79 288.304 103.79C286.679 103.79 285.782 104.18 285.782 104.869ZM290.761 102.542V95.496H292.165V102.542H290.761Z" fill="#333D4B"/>
<g clip-path="url(#clip1_11510_93610)">
<path d="M292.383 32H255.617C249.753 32 245 36.6715 245 42.434V78.566C245 84.3285 249.753 89 255.617 89H292.383C298.247 89 303 84.3285 303 78.566V42.434C303 36.6715 298.247 32 292.383 32Z" fill="#28BE5D"/>
<path d="M273.997 79.4928C284.161 79.4928 292.401 71.3953 292.401 61.4066C292.401 51.4178 284.161 43.3203 273.997 43.3203C263.833 43.3203 255.594 51.4178 255.594 61.4066C255.594 71.3953 263.833 79.4928 273.997 79.4928Z" fill="#166934"/>
<path d="M273.998 73.7346C280.926 73.7346 286.542 68.2151 286.542 61.4064C286.542 54.5977 280.926 49.0781 273.998 49.0781C267.07 49.0781 261.453 54.5977 261.453 61.4064C261.453 68.2151 267.07 73.7346 273.998 73.7346Z" fill="white"/>
<path d="M267.418 68.7436L269.157 58.8085C269.257 58.237 269.635 57.7526 270.166 57.506L279.452 53.2245C280.037 52.9547 280.686 53.4421 280.577 54.0657L278.838 64.0008C278.738 64.5723 278.36 65.0567 277.829 65.3033L268.543 69.5848C267.959 69.8546 267.309 69.3672 267.418 68.7436Z" fill="#28BE5D"/>
<path d="M274 64.1695C275.554 64.1695 276.813 62.9318 276.813 61.4051C276.813 59.8783 275.554 58.6406 274 58.6406C272.447 58.6406 271.188 59.8783 271.188 61.4051C271.188 62.9318 272.447 64.1695 274 64.1695Z" fill="white"/>
</g>
<path d="M39.5382 223.557H44.0622V221.633H40.7862V217.863H47.4032V216.381H40.7732V215.263H48.7812V218.968H42.1772V220.515H49.0412V221.633H45.4532V223.557H50.0032V224.688H39.5382V223.557ZM52.1745 215.471H60.1045V216.615H53.5525V219.904H60.2215V221.022H52.1745V215.471ZM50.9005 224.571V223.414H61.3655V224.571H50.9005ZM70.7388 214.496H72.0648V220.775H70.7388V218.136H69.5818V220.697H68.2688V214.704H69.5818V216.992H70.7388V214.496ZM62.7178 220.242V215.263H67.2288V220.242H62.7178ZM64.0178 219.15H65.9288V216.342H64.0178V219.15ZM64.3298 225.897V221.269H65.7078V222.452H70.6868V221.269H72.0648V225.897H64.3298ZM65.7078 224.779H70.6868V223.544H65.7078V224.779ZM82.5362 216.342H84.8112V214.483H86.2152V220.398H84.8112V217.473H82.5362V216.342ZM76.5692 219.358C78.4022 218.773 79.3642 217.343 79.3642 215.783V214.847H80.7552V215.783C80.7552 217.213 81.7042 218.578 83.4462 219.137L82.7312 220.216C81.4832 219.8 80.5862 218.968 80.0792 217.902C79.5852 219.085 78.6362 220.008 77.2972 220.45L76.5692 219.358ZM78.6622 222.01V220.918H86.2152V223.895H80.0662V224.805H86.5922V225.897H78.6752V222.868H84.8372V222.01H78.6622ZM92.3645 220.489H94.1845V218.721H92.5725C92.0395 220.658 90.8435 222.322 88.6725 223.609L87.8795 222.608C90.2325 221.191 91.3375 219.358 91.5455 217.018H88.4645V215.887H92.9235C92.9235 216.472 92.8845 217.044 92.8065 217.603H94.1845V214.756H95.4975V225.481H94.1845V221.607H92.3645V220.489ZM96.5375 226.04V214.483H97.8635V226.04H96.5375Z" fill="#333D4B"/>
<g clip-path="url(#clip2_11510_93610)">
<path d="M86.566 150H50.434C44.6715 150 40 154.753 40 160.617V197.383C40 203.247 44.6715 208 50.434 208H86.566C92.3285 208 97 203.247 97 197.383V160.617C97 154.753 92.3285 150 86.566 150Z" fill="#28BE5D"/>
<path d="M75.0896 179.68H61.9201C61.8273 179.68 61.7432 179.727 61.6909 179.804L57.6183 185.958C57.4935 186.144 57.627 186.398 57.8474 186.398H79.1622C79.3827 186.398 79.5161 186.147 79.3914 185.958L75.3187 179.804C75.2665 179.727 75.1824 179.68 75.0896 179.68Z" fill="#166934"/>
<path d="M69.6999 168.553C69.1284 167.691 67.8811 167.691 67.3096 168.553L62.4654 175.87C62.2507 176.194 62.4799 176.631 62.8628 176.631H74.1467C74.5296 176.631 74.7588 176.194 74.5441 175.87L69.6999 168.553Z" fill="#6CE095"/>
<path d="M83.3162 193.691L80.6185 189.618C80.3139 189.157 79.8063 188.883 79.261 188.883H57.7431C57.1978 188.883 56.6901 189.157 56.3855 189.618L53.6878 193.691C52.9975 194.733 53.7313 196.138 54.9671 196.138H82.0341C83.2698 196.138 84.0037 194.733 83.3133 193.691H83.3162Z" fill="#0D3F1F"/>
<path d="M69.5053 159.251C69.5053 158.685 69.0547 158.227 68.4988 158.227C67.9428 158.227 67.4922 158.685 67.4922 159.251V164.162C67.4922 164.728 67.9428 165.187 68.4988 165.187C69.0547 165.187 69.5053 164.728 69.5053 164.162V159.251Z" fill="white"/>
<path d="M61.3852 162.416C60.9922 162.016 60.3548 162.016 59.9617 162.416C59.5687 162.816 59.5687 163.465 59.9617 163.865L63.3749 167.338C63.7679 167.738 64.4053 167.738 64.7984 167.338C65.1914 166.938 65.1914 166.289 64.7984 165.889L61.3852 162.416Z" fill="white"/>
<path d="M72.2023 165.89C71.8092 166.29 71.8092 166.938 72.2023 167.338C72.5954 167.738 73.2327 167.738 73.6258 167.338L77.0389 163.865C77.432 163.465 77.432 162.817 77.0389 162.417C76.6458 162.017 76.0085 162.017 75.6154 162.417L72.2023 165.89Z" fill="white"/>
</g>
<path d="M265.58 220.541H276.019V221.659H265.58V220.541ZM266.737 223.648V222.543H274.706V226.04H273.315V223.648H266.737ZM266.906 219.67V214.769H274.784V215.848H268.297V216.667H274.511V217.707H268.297V218.591H274.875V219.67H266.906ZM284.586 214.483H285.977V217.304H287.589V218.461H285.977V221.269H284.586V214.483ZM276.903 220.32C279.529 219.579 281.063 218.149 281.297 216.407H277.436V215.276H282.831C282.831 218.318 280.855 220.476 277.475 221.438L276.903 220.32ZM278.463 223.726C278.463 222.296 279.971 221.412 282.298 221.412C284.612 221.412 286.12 222.296 286.12 223.726C286.12 225.156 284.612 226.04 282.298 226.04C279.971 226.04 278.463 225.156 278.463 223.726ZM279.841 223.726C279.841 224.493 280.79 224.948 282.298 224.948C283.819 224.948 284.742 224.493 284.742 223.726C284.742 222.946 283.819 222.504 282.298 222.504C280.79 222.504 279.841 222.946 279.841 223.726Z" fill="#333D4B"/>
<g clip-path="url(#clip3_11510_93610)">
<path d="M292.383 150H255.617C249.753 150 245 154.672 245 160.434V196.566C245 202.328 249.753 207 255.617 207H292.383C298.247 207 303 202.328 303 196.566V160.434C303 154.672 298.247 150 292.383 150Z" fill="#28BE5D"/>
<path d="M292.567 164.898H255.102C253.579 164.898 252.344 166.112 252.344 167.609V189.386C252.344 190.883 253.579 192.097 255.102 192.097H292.567C294.09 192.097 295.325 190.883 295.325 189.386V167.609C295.325 166.112 294.09 164.898 292.567 164.898Z" fill="#166934"/>
<path d="M289.045 168.742H258.621C257.463 168.742 256.523 169.665 256.523 170.804V186.197C256.523 187.335 257.463 188.258 258.621 188.258H289.045C290.204 188.258 291.143 187.335 291.143 186.197V170.804C291.143 169.665 290.204 168.742 289.045 168.742Z" fill="white"/>
<path d="M277.762 177.338C278.674 177.857 278.674 179.149 277.762 179.668L274.521 181.508L271.279 183.348C270.367 183.867 269.227 183.218 269.227 182.183V178.503V174.823C269.227 173.788 270.367 173.142 271.279 173.658L274.521 175.498L277.762 177.338Z" fill="#166934"/>
</g>
<path d="M156.36 168.96H165.68V170.14C165.68 171.42 165.68 173.2 165.26 175.44L162.54 175.12C162.82 173.52 162.9 172.26 162.92 171.2H156.36V168.96ZM155.28 176.64C156.24 176.64 157.32 176.64 158.46 176.62V173.22H161.24V176.52C162.96 176.44 164.72 176.32 166.34 176.08L166.52 178.06C162.82 178.76 158.62 178.84 155.54 178.86L155.28 176.64ZM157.9 185.44V179.98H160.7V183.22H170.66V185.44H157.9ZM167.28 181.18V167.68H170.08V173.1H172.16V175.38H170.08V181.18H167.28ZM185.34 167.66H188.14V185.78H185.34V167.66ZM174 171.4V169.18H182.56V176.28H176.86V179.32C179.54 179.28 181.76 179.16 184.18 178.74L184.46 180.98C181.62 181.5 178.96 181.6 175.64 181.6H174.02V174.06H179.7V171.4H174Z" fill="#333D4B"/>
<g clip-path="url(#clip4_11510_93610)">
<path d="M197.355 75H146.645C138.557 75 132 81.5569 132 89.6452V140.355C132 148.443 138.557 155 146.645 155H197.355C205.443 155 212 148.443 212 140.355V89.6452C212 81.5569 205.443 75 197.355 75Z" fill="black"/>
<path d="M159.594 127.434V123.648H161.562C162.444 123.648 162.927 124.221 162.927 124.908C162.927 125.595 162.444 126.151 161.562 126.151H160.607V127.434H159.594ZM161.426 124.472H160.607V125.323H161.426C161.695 125.323 161.897 125.159 161.897 124.903C161.897 124.648 161.695 124.472 161.426 124.472Z" fill="white"/>
<path d="M165.449 127.434L164.789 126.151H164.271V127.434H163.258V123.648H165.223C166.094 123.648 166.588 124.204 166.588 124.908C166.588 125.567 166.171 125.919 165.807 126.043L166.607 127.434H165.449ZM165.071 124.472H164.271V125.323H165.071C165.336 125.323 165.559 125.159 165.559 124.899C165.559 124.638 165.336 124.474 165.071 124.474V124.472Z" fill="white"/>
<path d="M168.937 123.586C170.138 123.586 171.034 124.39 171.034 125.544C171.034 126.698 170.138 127.503 168.937 127.503C167.737 127.503 166.836 126.698 166.836 125.544C166.836 124.39 167.737 123.586 168.937 123.586ZM168.937 124.449C168.285 124.449 167.866 124.925 167.866 125.544C167.866 126.164 168.283 126.64 168.937 126.64C169.592 126.64 170.005 126.157 170.005 125.544C170.005 124.932 169.587 124.449 168.937 124.449Z" fill="white"/>
<path d="M171.399 126.418C171.542 126.531 171.729 126.639 171.964 126.639C172.283 126.639 172.489 126.44 172.489 126.123V123.648H173.503V126.135C173.503 127.071 172.914 127.502 172.053 127.502C171.659 127.502 171.27 127.411 170.977 127.162L171.401 126.418H171.399Z" fill="white"/>
<path d="M174.086 127.434V123.648H176.964V124.472H175.097V125.103H176.922V125.931H175.097V126.611H176.964V127.434H174.086Z" fill="white"/>
<path d="M177.234 125.544C177.234 124.376 178.154 123.586 179.331 123.586C180.309 123.586 180.816 124.102 181.074 124.602L180.204 125C180.075 124.7 179.739 124.449 179.334 124.449C178.721 124.449 178.266 124.925 178.266 125.544C178.266 126.164 178.719 126.64 179.334 126.64C179.739 126.64 180.075 126.389 180.204 126.089L181.074 126.487C180.821 126.975 180.309 127.503 179.331 127.503C178.154 127.503 177.234 126.708 177.234 125.544Z" fill="white"/>
<path d="M182.272 127.434V124.5H181.172V123.648H184.381V124.5H183.285V127.434H182.272Z" fill="white"/>
<path d="M139.68 118.861V108.773H145.806C147.894 108.773 148.801 110.167 148.801 111.344C148.801 112.599 148.06 113.446 147.077 113.657C148.168 113.823 149.001 114.822 149.001 116.122C149.001 117.527 148.048 118.859 146.02 118.859H139.682L139.68 118.861ZM142.736 112.526H145.098C145.417 112.526 145.703 112.24 145.703 111.877C145.703 111.513 145.417 111.255 145.098 111.255H142.736V112.524V112.526ZM142.736 116.382H145.187C145.626 116.382 145.9 116.08 145.9 115.702C145.9 115.324 145.628 115.005 145.187 115.005H142.736V116.382Z" fill="white"/>
<path d="M155.778 118.861L154.385 115.625H153.283V118.861H150.227V108.773H155.614C157.976 108.773 159.245 110.345 159.245 112.235C159.245 113.976 158.229 114.898 157.43 115.292L159.261 118.861H155.781H155.778ZM155.143 111.316H153.283V113.087H155.143C155.656 113.087 156.142 112.754 156.142 112.196C156.142 111.637 155.656 111.321 155.143 111.321V111.316Z" fill="white"/>
<path d="M160.484 118.861V108.773H163.541V118.861H160.484Z" fill="white"/>
<path d="M165.172 118.861V108.773H168.228V118.861H165.172Z" fill="white"/>
<path d="M169.867 118.861V108.773H172.923V118.861H169.867Z" fill="white"/>
<path d="M174.555 118.861V108.773H179.065C182.243 108.773 184.603 110.589 184.603 113.812C184.603 117.034 182.243 118.861 179.081 118.861H174.555ZM177.613 116.199H179.065C180.594 116.199 181.502 115.08 181.502 113.812C181.502 112.451 180.714 111.436 179.081 111.436H177.613V116.199Z" fill="white"/>
<path d="M190.989 108.602C193.335 108.602 194.728 109.779 195.425 111.081L192.852 112.399C192.519 111.777 191.852 111.297 190.992 111.297C189.523 111.297 188.541 112.415 188.541 113.823C188.541 115.23 189.523 116.349 190.992 116.349C191.641 116.349 192.246 116.182 192.641 115.896V115.457H190.689V112.945H195.605V117.001C194.486 118.242 192.974 119.044 190.992 119.044C187.935 119.044 185.438 117.045 185.438 113.825C185.438 110.605 187.931 108.602 190.987 108.602H190.989Z" fill="white"/>
<path d="M196.672 118.861V108.773H204.328V111.314H199.728V112.491H204.222V115.031H199.728V116.317H204.328V118.857H196.672V118.864V118.861Z" fill="white"/>
</g>
<rect x="0.5" y="0.5" width="342" height="239" rx="23.5" stroke="#E5E8EB"/>
<defs>
<clipPath id="clip0_11510_93610">
<rect width="57" height="57" fill="white" transform="translate(40 32)"/>
</clipPath>
<clipPath id="clip1_11510_93610">
<rect width="58" height="57" fill="white" transform="translate(245 32)"/>
</clipPath>
<clipPath id="clip2_11510_93610">
<rect width="57" height="58" fill="white" transform="translate(40 150)"/>
</clipPath>
<clipPath id="clip3_11510_93610">
<rect width="58" height="57" fill="white" transform="translate(245 150)"/>
</clipPath>
<clipPath id="clip4_11510_93610">
<rect width="80" height="80" fill="white" transform="translate(132 75)"/>
</clipPath>
</defs>
</svg>
