<?xml version="1.0" encoding="UTF-8"?>
<!DOCTYPE svg PUBLIC "-//W3C//DTD SVG 1.1//EN" "http://www.w3.org/Graphics/SVG/1.1/DTD/svg11.dtd">
<svg xmlns="http://www.w3.org/2000/svg" version="1.1" width="512px" height="512px" style="shape-rendering:geometricPrecision; text-rendering:geometricPrecision; image-rendering:optimizeQuality; fill-rule:evenodd; clip-rule:evenodd" xmlns:xlink="http://www.w3.org/1999/xlink">
<g><path style="opacity:0.004" fill="#e09c3f" d="M 176.5,75.5 C 177.833,76.1667 177.833,76.1667 176.5,75.5 Z"/></g>
<g><path style="opacity:0.004" fill="#e29a3f" d="M 178.5,75.5 C 179.833,76.1667 179.833,76.1667 178.5,75.5 Z"/></g>
<g><path style="opacity:0.004" fill="#e49a3e" d="M 182.5,76.5 C 183.251,75.4265 184.251,75.2599 185.5,76C 184.552,76.4828 183.552,76.6495 182.5,76.5 Z"/></g>
<g><path style="opacity:0.004" fill="#e49a42" d="M 356.5,76.5 C 355.833,75.1667 355.833,75.1667 356.5,76.5 Z"/></g>
<g><path style="opacity:0.004" fill="#e49c41" d="M 353.5,77.5 C 352.761,77.631 352.094,77.4643 351.5,77C 352.437,76.3083 353.103,76.475 353.5,77.5 Z"/></g>
<g><path style="opacity:0.164" fill="#fed37e" d="M 62.5,79.5 C 68.5092,79.3338 74.5092,79.5005 80.5,80C 81.4162,80.3742 82.2496,80.8742 83,81.5C 83.8141,83.9018 83.6474,86.2351 82.5,88.5C 75.2167,89.6318 67.8834,89.7985 60.5,89C 57.5227,85.0526 58.1894,81.8859 62.5,79.5 Z"/></g>
<g><path style="opacity:0.151" fill="#fdd07a" d="M 95.5,79.5 C 108.837,79.3334 122.171,79.5001 135.5,80C 139.662,82.3075 140.328,85.3075 137.5,89C 122.833,89.6667 108.167,89.6667 93.5,89C 90.7427,85.1065 91.4094,81.9398 95.5,79.5 Z"/></g>
<g><path style="opacity:0.004" fill="#dc963e" d="M 169.5,79.5 C 170.833,80.1667 170.833,80.1667 169.5,79.5 Z"/></g>
<g><path style="opacity:0.004" fill="#f1be4f" d="M 377.5,80.5 C 377.897,79.475 378.563,79.3083 379.5,80C 378.906,80.4643 378.239,80.631 377.5,80.5 Z"/></g>
<g><path style="opacity:0.004" fill="#e1993e" d="M 167.5,80.5 C 168.833,81.1667 168.833,81.1667 167.5,80.5 Z"/></g>
<g><path style="opacity:0.153" fill="#fed37e" d="M 62.5,101.5 C 77.837,101.333 93.1703,101.5 108.5,102C 112.788,105.585 112.455,108.585 107.5,111C 92.5,111.667 77.5,111.667 62.5,111C 58.7783,107.936 58.7783,104.77 62.5,101.5 Z"/></g>
<g><path style="opacity:0.156" fill="#fdcf79" d="M 120.5,100.5 C 123.813,101.045 127.146,101.545 130.5,102C 134.701,105.523 134.368,108.523 129.5,111C 125.5,111.667 121.5,111.667 117.5,111C 114.031,105.804 115.031,102.304 120.5,100.5 Z"/></g>
<g><path style="opacity:0.004" fill="#e7ae4c" d="M 162.5,101.5 C 162.5,102.167 162.167,102.5 161.5,102.5C 158.999,102.489 158.832,101.822 161,100.5C 161.383,101.056 161.883,101.389 162.5,101.5 Z"/></g>
<g><path style="opacity:0.004" fill="#f8df8b" d="M 161.5,103.5 C 161.5,104.833 161.5,106.167 161.5,107.5C 161.167,107.5 160.833,107.5 160.5,107.5C 158.825,105.544 159.158,104.211 161.5,103.5 Z"/></g>
<g><path style="opacity:0.004" fill="#f3b670" d="M 386.5,108.5 C 386.5,108.167 386.5,107.833 386.5,107.5C 387.376,107.369 388.043,107.702 388.5,108.5C 388.03,109.463 387.363,109.463 386.5,108.5 Z"/></g>
<g><path style="opacity:0.008" fill="#edb447" d="M 160.5,107.5 C 160.328,108.492 160.662,109.158 161.5,109.5C 161.167,111.5 160.833,113.5 160.5,115.5C 159.784,113.444 159.117,111.277 158.5,109C 159.044,108.283 159.711,107.783 160.5,107.5 Z"/></g>
<g><path style="opacity:0.004" fill="#e59e3e" d="M 387.5,116.5 C 388.833,117.167 388.833,117.167 387.5,116.5 Z"/></g>
<g><path style="opacity:0.173" fill="#fdd37f" d="M 60.5,126.5 C 71.1719,126.333 81.8385,126.5 92.5,127C 95.5305,131.243 94.5305,134.243 89.5,136C 81.6854,136.341 74.0187,136.507 66.5,136.5C 58.8462,136.223 56.8462,132.89 60.5,126.5 Z"/></g>
<g><path style="opacity:0.193" fill="#fdd37f" d="M 117.5,130.5 C 119.582,130.472 121.416,131.139 123,132.5C 123.328,135.207 122.995,137.874 122,140.5C 116.466,156.103 111.132,171.77 106,187.5C 99.9486,191.107 97.2819,189.441 98,182.5C 103.634,164.756 110.134,147.422 117.5,130.5 Z"/></g>
<g><path style="opacity:0.005" fill="#e9ae57" d="M 160.5,128.5 C 160.993,130.806 161.326,133.139 161.5,135.5C 160.167,136.167 160.167,136.833 161.5,137.5C 161.5,137.833 161.5,138.167 161.5,138.5C 160.167,139.167 160.167,139.833 161.5,140.5C 161.5,140.833 161.5,141.167 161.5,141.5C 160.167,141.833 160.167,142.167 161.5,142.5C 162.11,143.391 162.443,144.391 162.5,145.5C 161.849,146.091 161.182,146.757 160.5,147.5C 159.269,146.349 159.269,145.183 160.5,144C 159.833,140.333 159.167,136.667 158.5,133C 159.099,131.378 159.766,129.878 160.5,128.5 Z"/></g>
<g><path style="opacity:0.194" fill="#fcce7a" d="M 126.5,145.5 C 128.989,145.298 131.323,145.798 133.5,147C 137.548,150.716 141.882,154.05 146.5,157C 148.741,158.739 150.408,160.906 151.5,163.5C 145.667,171.333 138.334,177.333 129.5,181.5C 125.853,180.514 124.686,178.181 126,174.5C 130.34,170.991 134.507,167.324 138.5,163.5C 134.507,159.676 130.34,156.009 126,152.5C 125.297,150.071 125.463,147.738 126.5,145.5 Z"/></g>
<g><path style="opacity:0.004" fill="#eaa243" d="M 386.5,150.5 C 387.833,151.167 387.833,151.167 386.5,150.5 Z"/></g>
<g><path style="opacity:0.201" fill="#fdd380" d="M 85.5,145.5 C 91.0001,144.831 93.1667,147.165 92,152.5C 87.2577,156.454 82.4244,160.287 77.5,164C 83.8809,167.343 89.2143,171.843 93.5,177.5C 91.6098,181.785 88.6098,182.619 84.5,180C 80.7829,176.615 76.7829,173.615 72.5,171C 69.716,168.888 67.716,166.221 66.5,163C 67.4841,161.343 68.4841,159.677 69.5,158C 75.0196,153.97 80.3529,149.803 85.5,145.5 Z"/></g>
<g><path style="opacity:0.004" fill="#eab350" d="M 164.5,159.5 C 164.433,160.959 164.766,162.292 165.5,163.5C 164.596,164.209 164.263,165.209 164.5,166.5C 164.5,166.833 164.5,167.167 164.5,167.5C 163.784,165.444 163.117,163.277 162.5,161C 163.044,160.283 163.711,159.783 164.5,159.5 Z"/></g>
<g><path style="opacity:0.004" fill="#e1983d" d="M 159.5,172.5 C 160.525,172.897 160.692,173.563 160,174.5C 159.536,173.906 159.369,173.239 159.5,172.5 Z"/></g>
<g><path style="opacity:0.016" fill="#f0bf54" d="M 161.5,175.5 C 161.5,175.833 161.5,176.167 161.5,176.5C 160.833,176.5 160.5,176.833 160.5,177.5C 160.5,178.167 160.5,178.833 160.5,179.5C 159.876,179.083 159.543,178.416 159.5,177.5C 159.747,176.287 160.414,175.62 161.5,175.5 Z"/></g>
<g><path style="opacity:0.004" fill="#eca144" d="M 386.5,188.5 C 387.833,189.167 387.833,189.167 386.5,188.5 Z"/></g>
<g><path style="opacity:0.004" fill="#e0a34d" d="M 157.5,191.5 C 157.167,192.167 156.833,192.833 156.5,193.5C 155.378,191.712 155.211,189.712 156,187.5C 156.21,189.058 156.71,190.391 157.5,191.5 Z"/></g>
<g><path style="opacity:0.004" fill="#e59f3f" d="M 386.5,190.5 C 387.833,191.167 387.833,191.167 386.5,190.5 Z"/></g>
<g><path style="opacity:0.14" fill="#fdd17b" d="M 62.5,197.5 C 74.8378,197.333 87.1712,197.5 99.5,198C 103.482,201.048 103.482,204.048 99.5,207C 87.1667,207.667 74.8333,207.667 62.5,207C 58.7783,203.936 58.7783,200.77 62.5,197.5 Z"/></g>
<g><path style="opacity:0.141" fill="#fbcb73" d="M 111.5,197.5 C 120.839,197.334 130.173,197.5 139.5,198C 143.5,201 143.5,204 139.5,207C 129.833,207.667 120.167,207.667 110.5,207C 107.908,203.583 108.241,200.416 111.5,197.5 Z"/></g>
<g><path style="opacity:0.004" fill="#dd9639" d="M 152.5,205.5 C 153.833,206.167 153.833,206.167 152.5,205.5 Z"/></g>
<g><path style="opacity:0.004" fill="#e7a73d" d="M 154.5,208.5 C 154.5,209.167 154.167,209.5 153.5,209.5C 151.895,210.969 151.395,210.635 152,208.5C 152.77,207.402 153.603,207.402 154.5,208.5 Z"/></g>
<g><path style="opacity:0.004" fill="#db9037" d="M 151.5,211.5 C 152.573,212.251 152.74,213.251 152,214.5C 151.517,213.552 151.351,212.552 151.5,211.5 Z"/></g>
<g><path style="opacity:0.004" fill="#e19a3c" d="M 390.5,214.5 C 391.833,215.167 391.833,215.167 390.5,214.5 Z"/></g>
<g><path style="opacity:0.004" fill="#e39c3c" d="M 439.5,214.5 C 440.833,215.167 440.833,215.167 439.5,214.5 Z"/></g>
<g><path style="opacity:0.005" fill="#e0a34b" d="M 153.5,215.5 C 153.5,215.833 153.5,216.167 153.5,216.5C 152.778,216.918 152.278,217.584 152,218.5C 151.275,216.843 151.775,215.843 153.5,215.5 Z"/></g>
<g><path style="opacity:0.004" fill="#e9a142" d="M 433.5,216.5 C 432.448,216.649 431.448,216.483 430.5,216C 431.749,215.26 432.749,215.427 433.5,216.5 Z"/></g>
<g><path style="opacity:0.004" fill="#e9a245" d="M 448.5,215.5 C 449.833,216.167 449.833,216.167 448.5,215.5 Z"/></g>
<g><path style="opacity:0.016" fill="#fed870" d="M 447.5,217.5 C 446.833,217.167 446.167,216.833 445.5,216.5C 446.301,214.207 446.968,214.54 447.5,217.5 Z"/></g>
<g><path style="opacity:0.137" fill="#fdd079" d="M 60.5,219.5 C 78.8364,219.333 97.1697,219.5 115.5,220C 119.085,222.528 119.418,225.528 116.5,229C 97.8333,229.667 79.1667,229.667 60.5,229C 56.6491,225.856 56.6491,222.689 60.5,219.5 Z"/></g>
<g><path style="opacity:0.012" fill="#f1ab4a" d="M 137.5,220.5 C 137.5,221.167 137.167,221.5 136.5,221.5C 135.957,221.44 135.624,221.107 135.5,220.5C 136.257,219.227 136.923,219.227 137.5,220.5 Z"/></g>
<g><path style="opacity:0.004" fill="#eba84b" d="M 466.5,238.5 C 467.833,239.167 467.833,239.167 466.5,238.5 Z"/></g>
<g><path style="opacity:0.004" fill="#e19738" d="M 162.5,257.5 C 162.631,258.239 162.464,258.906 162,259.5C 161.308,258.563 161.475,257.897 162.5,257.5 Z"/></g>
<g><path style="opacity:0.004" fill="#d59337" d="M 164.5,260.5 C 164.5,261.167 164.833,261.5 165.5,261.5C 166.167,261.5 166.5,261.833 166.5,262.5C 165.133,263.853 164.133,263.519 163.5,261.5C 163.624,260.893 163.957,260.56 164.5,260.5 Z"/></g>
<g><path style="opacity:0.004" fill="#eeb95a" d="M 168.5,265.5 C 169.5,265.833 170.167,266.5 170.5,267.5C 169.325,267.719 168.325,267.386 167.5,266.5C 167.624,265.893 167.957,265.56 168.5,265.5 Z"/></g>
<g><path style="opacity:0.012" fill="#dba64b" d="M 171.5,269.5 C 172.71,269.932 173.71,270.599 174.5,271.5C 173.504,271.414 172.671,271.748 172,272.5C 171.517,271.552 171.351,270.552 171.5,269.5 Z"/></g>
<g><path style="opacity:0.004" fill="#eba443" d="M 447.5,270.5 C 448.833,271.167 448.833,271.167 447.5,270.5 Z"/></g>
<g><path style="opacity:0.004" fill="#cf8b33" d="M 176.5,274.5 C 176.833,274.5 177.167,274.5 177.5,274.5C 177.315,275.17 176.981,275.17 176.5,274.5 Z"/></g>
<g><path style="opacity:0.004" fill="#e49f41" d="M 446.5,274.5 C 447.833,275.167 447.833,275.167 446.5,274.5 Z"/></g>
<g><path style="opacity:0.008" fill="#de9f3e" d="M 179.5,275.5 C 180.167,275.5 180.5,275.833 180.5,276.5C 180.5,277.167 180.833,277.5 181.5,277.5C 181.5,278.167 181.833,278.5 182.5,278.5C 180.183,279.534 179.183,278.534 179.5,275.5 Z"/></g>
<g><path style="opacity:0.004" fill="#e3983d" d="M 59.5,282.5 C 60.8333,283.167 60.8333,283.167 59.5,282.5 Z"/></g>
<g><path style="opacity:0.004" fill="#e0923d" d="M 64.5,282.5 C 65.8333,283.167 65.8333,283.167 64.5,282.5 Z"/></g>
<g><path style="opacity:0.004" fill="#df953e" d="M 89.5,282.5 C 90.8333,283.167 90.8333,283.167 89.5,282.5 Z"/></g>
<g><path style="opacity:0.012" fill="#e4a239" d="M 187.5,281.5 C 188.492,281.328 189.158,281.662 189.5,282.5C 188.377,283.757 187.711,283.424 187.5,281.5 Z"/></g>
<g><path style="opacity:0.004" fill="#e8a044" d="M 52.5,283.5 C 53.8333,284.167 53.8333,284.167 52.5,283.5 Z"/></g>
<g><path style="opacity:0.008" fill="#f7e269" d="M 164.5,284.5 C 163.833,284.5 163.167,284.5 162.5,284.5C 162.786,282.067 163.452,282.067 164.5,284.5 Z"/></g>
<g><path style="opacity:0.004" fill="#eda348" d="M 52.5,284.5 C 52.5,284.833 52.5,285.167 52.5,285.5C 51.8299,285.019 51.8299,284.685 52.5,284.5 Z"/></g>
<g><path style="opacity:0.278" fill="#63411c" d="M 139.5,284.5 C 124.833,285.833 110.167,285.833 95.5,284.5C 110.105,284.293 124.438,284.127 138.5,284C 137.304,283.346 137.304,282.846 138.5,282.5C 139.298,282.957 139.631,283.624 139.5,284.5 Z"/></g>
<g><path style="opacity:0.059" fill="#ba7c2a" d="M 192.5,283.5 C 193.473,283.987 194.473,284.487 195.5,285C 191.642,285.81 187.976,285.643 184.5,284.5C 187.385,284.806 190.052,284.473 192.5,283.5 Z"/></g>
<g><path style="opacity:0.008" fill="#ffe08f" d="M 49.5,287.5 C 49.1667,288.5 48.5,289.167 47.5,289.5C 47.369,288.761 47.5357,288.094 48,287.5C 48.69,286.262 49.19,286.262 49.5,287.5 Z"/></g>
<g><path style="opacity:0.839" fill="#241207" d="M 95.5,284.5 C 110.167,285.833 124.833,285.833 139.5,284.5C 147.167,284.5 154.833,284.5 162.5,284.5C 163.167,284.5 163.833,284.5 164.5,284.5C 169.5,284.5 174.5,284.5 179.5,284.5C 138.512,286.329 97.1788,287.162 55.5,287C 49.5901,288.579 46.0901,292.412 45,298.5C 44.5172,297.552 44.3505,296.552 44.5,295.5C 44.5858,294.504 44.2524,293.671 43.5,293C 45.3237,292.34 46.657,291.173 47.5,289.5C 48.5,289.167 49.1667,288.5 49.5,287.5C 50.7095,287.068 51.7095,286.401 52.5,285.5C 66.7848,284.534 81.1181,284.2 95.5,284.5 Z"/></g>
<g><path style="opacity:0.006" fill="#efc15a" d="M 44.5,308.5 C 44.8333,309.167 45.1667,309.833 45.5,310.5C 44.8826,310.611 44.3826,310.944 44,311.5C 43.2599,310.251 43.4265,309.251 44.5,308.5 Z"/></g>
<g><path style="opacity:0.004" fill="#e4a043" d="M 454.5,312.5 C 453.833,311.167 453.833,311.167 454.5,312.5 Z"/></g>
<g><path style="opacity:0.004" fill="#eca945" d="M 454.5,312.5 C 455.833,313.167 455.833,313.167 454.5,312.5 Z"/></g>
<g><path style="opacity:0.004" fill="#efa544" d="M 454.5,315.5 C 455.833,316.167 455.833,316.167 454.5,315.5 Z"/></g>
<g><path style="opacity:0.008" fill="#edb05b" d="M 48.5,324.5 C 48.5,325.167 48.5,325.833 48.5,326.5C 48.3284,327.492 48.6618,328.158 49.5,328.5C 49.5,328.833 49.5,329.167 49.5,329.5C 48.1667,329.833 48.1667,330.167 49.5,330.5C 50.1667,330.5 50.5,330.833 50.5,331.5C 49.5,331.5 48.5,331.5 47.5,331.5C 47.6816,329.409 47.3482,327.409 46.5,325.5C 46.9569,324.702 47.6236,324.369 48.5,324.5 Z"/></g>
<g><path style="opacity:0.004" fill="#eea947" d="M 458.5,329.5 C 459.833,330.167 459.833,330.167 458.5,329.5 Z"/></g>
<g><path style="opacity:0.004" fill="#dd9a3e" d="M 51.5,346.5 C 52.8333,347.167 52.8333,347.167 51.5,346.5 Z"/></g>
<g><path style="opacity:0.004" fill="#e29b41" d="M 51.5,350.5 C 52.0768,349.227 52.7435,349.227 53.5,350.5C 53.0302,351.463 52.3635,351.463 51.5,350.5 Z"/></g>
<g><path style="opacity:1" fill="#381905" d="M 377.5,80.5 C 379.488,82.4649 380.988,84.7982 382,87.5C 382.654,86.3044 383.154,86.3044 383.5,87.5C 383.167,88.1667 382.833,88.8333 382.5,89.5C 384.664,95.3182 385.998,101.318 386.5,107.5C 386.5,107.833 386.5,108.167 386.5,108.5C 387.836,130.606 385.836,152.439 380.5,174C 387.646,192.519 390.646,211.686 389.5,231.5C 390.959,231.433 392.292,231.766 393.5,232.5C 393.5,233.167 393.833,233.5 394.5,233.5C 395.463,239.289 393.296,241.289 388,239.5C 386.965,241.891 386.798,244.224 387.5,246.5C 387.154,247.696 386.654,247.696 386,246.5C 384.53,249.744 383.363,253.077 382.5,256.5C 381.163,257.315 380.163,258.482 379.5,260C 385.578,263.027 385.911,266.193 380.5,269.5C 379.075,269.377 377.742,269.043 376.5,268.5C 375.833,267.167 375.167,267.167 374.5,268.5C 371.5,270.833 368.833,273.5 366.5,276.5C 365.527,276.987 364.527,277.487 363.5,278C 364.833,279 364.833,280 363.5,281C 364.381,281.708 365.047,282.542 365.5,283.5C 365.833,284.5 366.5,285.167 367.5,285.5C 368.167,286.833 369.167,287.833 370.5,288.5C 371.026,290.23 372.026,291.564 373.5,292.5C 373.5,293.167 373.833,293.5 374.5,293.5C 377.163,297.433 379.496,301.1 381.5,304.5C 382.68,307.54 384.347,310.206 386.5,312.5C 387.227,314.954 388.227,317.287 389.5,319.5C 389.5,320.167 389.833,320.5 390.5,320.5C 391.326,323.485 392.659,326.151 394.5,328.5C 396.597,334.349 398.931,340.015 401.5,345.5C 401.263,346.791 401.596,347.791 402.5,348.5C 404.897,357.526 407.397,366.526 410,375.5C 410.707,373.919 411.54,372.419 412.5,371C 411.446,369.612 411.28,368.112 412,366.5C 412.333,367.5 412.667,368.5 413,369.5C 415.109,365.064 416.276,360.397 416.5,355.5C 417.434,354.432 417.768,353.099 417.5,351.5C 417.5,350.167 417.5,348.833 417.5,347.5C 417.567,346.041 417.234,344.708 416.5,343.5C 416.163,339.171 415.163,334.838 413.5,330.5C 413.5,329.5 413.5,328.5 413.5,327.5C 413.011,326.005 412.345,324.671 411.5,323.5C 410.833,320.833 410.167,318.167 409.5,315.5C 409.167,314.833 408.833,314.167 408.5,313.5C 407.877,309.443 406.21,305.943 403.5,303C 404.022,302.439 404.355,301.772 404.5,301C 403.837,297.129 402.504,293.629 400.5,290.5C 401.434,289.432 401.768,288.099 401.5,286.5C 401.5,285.833 401.167,285.5 400.5,285.5C 400.5,284.833 400.5,284.167 400.5,283.5C 400.5,282.5 400.5,281.5 400.5,280.5C 399.208,274.166 399.208,267.833 400.5,261.5C 399.833,261.167 399.167,260.833 398.5,260.5C 399.167,259.833 399.833,259.167 400.5,258.5C 399.515,256.902 399.349,255.235 400,253.5C 400.333,254.5 400.667,255.5 401,256.5C 402.072,252.453 403.239,248.453 404.5,244.5C 405.167,244.5 405.5,244.167 405.5,243.5C 405.5,242.833 405.5,242.167 405.5,241.5C 406.674,240.486 407.34,239.153 407.5,237.5C 408.167,237.5 408.5,237.167 408.5,236.5C 409.167,236.5 409.5,236.167 409.5,235.5C 410.441,233.228 411.774,231.228 413.5,229.5C 414.167,229.5 414.5,229.167 414.5,228.5C 415.488,227.205 416.488,225.872 417.5,224.5C 419.404,224.262 420.738,223.262 421.5,221.5C 425.548,219.805 429.548,218.139 433.5,216.5C 437.5,216.5 441.5,216.5 445.5,216.5C 446.167,216.833 446.833,217.167 447.5,217.5C 458.251,220.088 464.251,226.921 465.5,238C 464.24,247.686 459.74,255.519 452,261.5C 449.962,264.243 448.462,267.243 447.5,270.5C 446.566,271.568 446.232,272.901 446.5,274.5C 445.353,278.646 445.186,282.98 446,287.5C 447.96,296.503 450.46,304.836 453.5,312.5C 453.232,314.099 453.566,315.432 454.5,316.5C 455.785,323.139 457.451,329.639 459.5,336C 459.272,343.396 459.272,350.896 459.5,358.5C 457.443,372.668 452.776,386.001 445.5,398.5C 438.922,407.877 430.255,415.71 419.5,422C 424.167,422.333 428.833,422.667 433.5,423C 436.167,425.667 436.167,428.333 433.5,431C 405.5,431.333 377.5,431.667 349.5,432C 347.5,432.333 345.5,432.667 343.5,433C 344.712,434.107 344.379,434.607 342.5,434.5C 342.158,433.662 341.492,433.328 340.5,433.5C 340.167,433.5 339.833,433.5 339.5,433.5C 338.761,433.369 338.094,433.536 337.5,434C 338.696,434.654 338.696,435.154 337.5,435.5C 335.102,435.457 332.769,435.457 330.5,435.5C 324.154,436.058 317.821,436.724 311.5,437.5C 310.609,438.11 309.609,438.443 308.5,438.5C 301.55,439.825 294.55,440.825 287.5,441.5C 286.391,441.557 285.391,441.89 284.5,442.5C 283.448,442.351 282.448,442.517 281.5,443C 282.696,443.654 282.696,444.154 281.5,444.5C 276.98,443.426 272.647,443.76 268.5,445.5C 266.833,445.5 265.167,445.5 263.5,445.5C 262.391,445.557 261.391,445.89 260.5,446.5C 258.766,447.562 257.099,447.562 255.5,446.5C 252.57,445.701 249.57,445.368 246.5,445.5C 246.167,445.5 245.833,445.5 245.5,445.5C 245.167,445.5 244.833,445.5 244.5,445.5C 234.167,445.5 223.833,445.5 213.5,445.5C 212.833,445.5 212.167,445.5 211.5,445.5C 203.316,445.174 195.316,445.508 187.5,446.5C 186.833,446.5 186.167,446.5 185.5,446.5C 184.791,445.596 183.791,445.263 182.5,445.5C 179.545,444.841 176.545,444.508 173.5,444.5C 171.5,444.5 169.5,444.5 167.5,444.5C 166.833,444.5 166.167,444.5 165.5,444.5C 138.493,444.6 111.493,444.267 84.5,443.5C 84.5,442.833 84.1667,442.5 83.5,442.5C 82.3951,441.4 81.0618,440.733 79.5,440.5C 79.1667,439.5 78.5,438.833 77.5,438.5C 77.6716,437.508 77.3382,436.842 76.5,436.5C 75.0721,433.697 74.4054,430.697 74.5,427.5C 74.1667,426.833 73.8333,426.167 73.5,425.5C 73.5,424.833 73.5,424.167 73.5,423.5C 73.5,422.833 73.1667,422.5 72.5,422.5C 71.3065,419.948 69.9732,417.448 68.5,415C 69.056,414.617 69.3893,414.117 69.5,413.5C 69.1667,412.833 68.8333,412.167 68.5,411.5C 67.4995,406.165 66.4995,400.832 65.5,395.5C 64.8902,394.609 64.5569,393.609 64.5,392.5C 62.2984,388.36 61.2984,383.694 61.5,378.5C 61.5,377.833 61.1667,377.5 60.5,377.5C 59.7867,373.313 58.7867,369.313 57.5,365.5C 57.5,364.833 57.5,364.167 57.5,363.5C 57.5,363.167 57.5,362.833 57.5,362.5C 57.5,362.167 57.5,361.833 57.5,361.5C 57.5,360.833 57.1667,360.5 56.5,360.5C 56.6399,358.876 55.9733,357.71 54.5,357C 55.1553,351.118 53.8219,345.618 50.5,340.5C 51.3574,337.549 51.3574,334.549 50.5,331.5C 50.5,330.833 50.1667,330.5 49.5,330.5C 49.5,330.167 49.5,329.833 49.5,329.5C 49.5,329.167 49.5,328.833 49.5,328.5C 49.6716,327.508 49.3382,326.842 48.5,326.5C 48.5,325.833 48.5,325.167 48.5,324.5C 47.5008,319.838 46.5008,315.171 45.5,310.5C 45.1667,309.833 44.8333,309.167 44.5,308.5C 43.3376,304.02 43.3376,299.687 44.5,295.5C 44.3505,296.552 44.5172,297.552 45,298.5C 46.0901,292.412 49.5901,288.579 55.5,287C 97.1788,287.162 138.512,286.329 179.5,284.5C 181.167,284.5 182.833,284.5 184.5,284.5C 187.976,285.643 191.642,285.81 195.5,285C 194.473,284.487 193.473,283.987 192.5,283.5C 191.391,283.443 190.391,283.11 189.5,282.5C 189.158,281.662 188.492,281.328 187.5,281.5C 186.035,280.263 184.368,279.263 182.5,278.5C 181.833,278.5 181.5,278.167 181.5,277.5C 180.833,277.5 180.5,277.167 180.5,276.5C 180.5,275.833 180.167,275.5 179.5,275.5C 178.833,275.167 178.167,274.833 177.5,274.5C 177.167,273.167 176.833,273.167 176.5,274.5C 175.599,273.71 174.932,272.71 174.5,271.5C 173.71,270.599 172.71,269.932 171.5,269.5C 171.167,268.833 170.833,268.167 170.5,267.5C 170.167,266.5 169.5,265.833 168.5,265.5C 167.833,264.5 167.167,263.5 166.5,262.5C 166.5,261.833 166.167,261.5 165.5,261.5C 164.833,261.5 164.5,261.167 164.5,260.5C 164.068,259.29 163.401,258.29 162.5,257.5C 162.167,256.833 161.833,256.167 161.5,255.5C 161.068,254.29 160.401,253.29 159.5,252.5C 159.631,251.761 159.464,251.094 159,250.5C 155.927,251.858 152.76,253.025 149.5,254C 150.696,254.654 150.696,255.154 149.5,255.5C 146.199,255.817 142.865,255.817 139.5,255.5C 139.336,252.813 139.503,250.146 140,247.5C 140.333,247.833 140.667,248.167 141,248.5C 145.503,246.11 150.169,244.11 155,242.5C 154.993,237.787 154.327,233.12 153,228.5C 152.182,233.794 151.682,233.794 151.5,228.5C 147.154,228.666 142.821,228.499 138.5,228C 135.695,226.422 135.028,224.255 136.5,221.5C 137.167,221.5 137.5,221.167 137.5,220.5C 142.772,219.6 148.105,219.267 153.5,219.5C 153.5,218.5 153.5,217.5 153.5,216.5C 153.5,216.167 153.5,215.833 153.5,215.5C 153.5,213.5 153.5,211.5 153.5,209.5C 154.167,209.5 154.5,209.167 154.5,208.5C 154.626,203.414 155.293,198.414 156.5,193.5C 156.833,192.833 157.167,192.167 157.5,191.5C 157.878,187.322 158.878,183.322 160.5,179.5C 160.5,178.833 160.5,178.167 160.5,177.5C 161.167,177.5 161.5,177.167 161.5,176.5C 161.5,176.167 161.5,175.833 161.5,175.5C 162.684,174.312 162.684,173.145 161.5,172C 163.481,171.395 163.815,170.395 162.5,169C 163.416,168.722 164.082,168.222 164.5,167.5C 164.5,167.167 164.5,166.833 164.5,166.5C 165.404,165.791 165.737,164.791 165.5,163.5C 164.766,162.292 164.433,160.959 164.5,159.5C 163.372,154.938 162.705,150.272 162.5,145.5C 162.443,144.391 162.11,143.391 161.5,142.5C 161.5,142.167 161.5,141.833 161.5,141.5C 161.5,141.167 161.5,140.833 161.5,140.5C 161.5,139.833 161.5,139.167 161.5,138.5C 161.5,138.167 161.5,137.833 161.5,137.5C 161.5,136.833 161.5,136.167 161.5,135.5C 161.326,133.139 160.993,130.806 160.5,128.5C 159.529,124.233 159.529,119.9 160.5,115.5C 160.833,113.5 161.167,111.5 161.5,109.5C 161.5,108.833 161.5,108.167 161.5,107.5C 161.5,106.167 161.5,104.833 161.5,103.5C 161.5,103.167 161.5,102.833 161.5,102.5C 162.167,102.5 162.5,102.167 162.5,101.5C 162.607,97.9019 163.274,94.4019 164.5,91C 164.265,90.1268 163.931,89.2935 163.5,88.5C 167.251,85.9184 170.084,82.585 172,78.5C 172.414,78.9574 172.914,79.2907 173.5,79.5C 180.462,76.723 187.296,77.0563 194,80.5C 194.333,79.8333 194.667,79.1667 195,78.5C 196.611,81.562 199.111,83.562 202.5,84.5C 205.627,87.8979 209.293,90.5646 213.5,92.5C 214.5,94.1667 215.833,95.5 217.5,96.5C 218.5,98.1667 219.833,99.5 221.5,100.5C 221.5,101.167 221.833,101.5 222.5,101.5C 222.5,102.167 222.833,102.5 223.5,102.5C 223.833,103.5 224.5,104.167 225.5,104.5C 225.5,105.167 225.833,105.5 226.5,105.5C 226.866,106.695 227.699,107.361 229,107.5C 231.225,106.904 233.392,106.237 235.5,105.5C 235.833,105.5 236.167,105.5 236.5,105.5C 237.167,105.5 237.833,105.5 238.5,105.5C 239.167,105.5 239.5,105.167 239.5,104.5C 260.137,101.094 280.804,101.427 301.5,105.5C 303.905,106.768 306.572,107.435 309.5,107.5C 309.897,108.525 310.563,108.692 311.5,108C 313.199,105.691 315.199,103.858 317.5,102.5C 319.858,100.471 322.192,98.4707 324.5,96.5C 325.5,95.8333 326.5,95.1667 327.5,94.5C 328.167,94.5 328.5,94.1667 328.5,93.5C 329.167,93.5 329.5,93.1667 329.5,92.5C 332.112,91.7225 333.945,90.0559 335,87.5C 335.333,87.8333 335.667,88.1667 336,88.5C 336.903,87.2986 338.069,86.4652 339.5,86C 340.833,85.3333 340.833,84.6667 339.5,84C 340.449,83.3828 341.282,83.5494 342,84.5C 345.814,82.0155 349.647,79.6822 353.5,77.5C 354.791,77.7373 355.791,77.404 356.5,76.5C 364.268,74.3401 371.268,75.6734 377.5,80.5 Z"/></g>
<g><path style="opacity:0.004" fill="#e3a451" d="M 416.5,343.5 C 417.234,344.708 417.567,346.041 417.5,347.5C 416.167,348.833 416.167,350.167 417.5,351.5C 417.768,353.099 417.434,354.432 416.5,355.5C 415.209,351.399 415.209,347.399 416.5,343.5 Z"/></g>
<g><path style="opacity:0.999" fill="#806e5f" d="M 258.5,421.5 C 255.774,417.34 253.941,412.673 253,407.5C 245.983,374.099 238.65,340.766 231,307.5C 229.098,302.6 225.598,299.433 220.5,298C 165.833,297.333 111.167,297.333 56.5,298C 55.3066,299.095 53.9733,299.928 52.5,300.5C 52.3266,296.83 53.9933,294.33 57.5,293C 114.561,292.388 171.561,293.055 228.5,295C 232.577,297.755 235.077,301.588 236,306.5C 243.822,340.791 251.489,375.124 259,409.5C 259.762,413.587 259.596,417.587 258.5,421.5 Z"/></g>
<g><path style="opacity:0.004" fill="#e1993a" d="M 402.5,347.5 C 403.833,348.167 403.833,348.167 402.5,347.5 Z"/></g>
<g><path style="opacity:0.004" fill="#e2983b" d="M 401.5,345.5 C 401.897,344.475 402.563,344.308 403.5,345C 402.906,345.464 402.239,345.631 401.5,345.5 Z"/></g>
<g><path style="opacity:0.999" fill="#fab149" d="M 449.5,335.5 C 450.807,344.197 450.807,352.863 449.5,361.5C 441.914,357.937 433.914,355.937 425.5,355.5C 425.705,349.122 425.372,342.789 424.5,336.5C 424.5,335.5 424.5,334.5 424.5,333.5C 433.023,331.852 441.356,332.519 449.5,335.5 Z"/></g>
<g><path style="opacity:0.008" fill="#e3993a" d="M 412.5,330.5 C 412.833,330.5 413.167,330.5 413.5,330.5C 413.315,331.17 412.981,331.17 412.5,330.5 Z"/></g>
<g><path style="opacity:0.012" fill="#f3bb5b" d="M 411.5,323.5 C 412.345,324.671 413.011,326.005 413.5,327.5C 412.596,328.209 412.263,329.209 412.5,330.5C 411.532,328.393 411.198,326.059 411.5,323.5 Z"/></g>
<g><path style="opacity:0.008" fill="#e4993d" d="M 394.5,328.5 C 394.369,327.761 394.536,327.094 395,326.5C 395.692,327.437 395.525,328.103 394.5,328.5 Z"/></g>
<g><path style="opacity:1" fill="#6f5e4f" d="M 258.5,421.5 C 258.082,422.222 257.416,422.722 256.5,423C 240.333,423.167 224.167,423.333 208,423.5C 166.08,423.413 124.247,422.579 82.5,421C 80.1064,419.048 78.6064,416.548 78,413.5C 69.0204,375.917 60.5204,338.25 52.5,300.5C 53.9733,299.928 55.3066,299.095 56.5,298C 111.167,297.333 165.833,297.333 220.5,298C 225.598,299.433 229.098,302.6 231,307.5C 238.65,340.766 245.983,374.099 253,407.5C 253.941,412.673 255.774,417.34 258.5,421.5 Z"/></g>
<g><path style="opacity:0.999" fill="#f7d89d" d="M 170.5,347.5 C 174.331,347.249 177.664,348.416 180.5,351C 183.557,353.723 186.89,356.056 190.5,358C 195.833,361.667 195.833,365.333 190.5,369C 185.303,373.091 179.97,376.925 174.5,380.5C 173.558,380.392 172.725,380.059 172,379.5C 171.333,377.833 171.333,376.167 172,374.5C 176.301,370.941 180.468,367.275 184.5,363.5C 179.397,360.198 174.564,356.531 170,352.5C 169.36,350.735 169.527,349.068 170.5,347.5 Z"/></g>
<g><path style="opacity:0.998" fill="#f7d89e" d="M 156.5,338.5 C 160.57,337.508 162.57,339.008 162.5,343C 159.099,357.773 155.932,372.607 153,387.5C 148.917,389.572 146.75,388.405 146.5,384C 149.675,368.774 153.009,353.607 156.5,338.5 Z"/></g>
<g><path style="opacity:0.004" fill="#f7b847" d="M 390.5,320.5 C 389.833,320.5 389.5,320.167 389.5,319.5C 391.409,318.321 391.742,318.654 390.5,320.5 Z"/></g>
<g><path style="opacity:0.004" fill="#e6a543" d="M 408.5,313.5 C 408.833,314.167 409.167,314.833 409.5,315.5C 408.732,316.263 408.232,317.263 408,318.5C 407.22,316.613 407.387,314.946 408.5,313.5 Z"/></g>
<g><path style="opacity:1" fill="#e38421" d="M 444.5,315.5 C 447.082,321.827 448.748,328.493 449.5,335.5C 441.356,332.519 433.023,331.852 424.5,333.5C 424.5,334.5 424.5,335.5 424.5,336.5C 423.104,329.88 421.437,323.214 419.5,316.5C 423.092,314.311 427.092,313.311 431.5,313.5C 435.92,313.689 440.253,314.356 444.5,315.5 Z"/></g>
<g><path style="opacity:0.004" fill="#dd963b" d="M 386.5,311.5 C 387.833,312.167 387.833,312.167 386.5,311.5 Z"/></g>
<g><path style="opacity:0.004" fill="#e2973a" d="M 403.5,305.5 C 404.525,305.897 404.692,306.563 404,307.5C 403.536,306.906 403.369,306.239 403.5,305.5 Z"/></g>
<g><path style="opacity:0.004" fill="#fdae46" d="M 381.5,303.5 C 382.833,304.167 382.833,304.167 381.5,303.5 Z"/></g>
<g><path style="opacity:0.004" fill="#e69e42" d="M 378.5,296.5 C 379.833,297.167 379.833,297.167 378.5,296.5 Z"/></g>
<g><path style="opacity:0.004" fill="#e39b41" d="M 373.5,292.5 C 373.56,291.957 373.893,291.624 374.5,291.5C 375.773,292.257 375.773,292.923 374.5,293.5C 373.833,293.5 373.5,293.167 373.5,292.5 Z"/></g>
<g><path style="opacity:0.999" fill="#fbb14a" d="M 410.5,289.5 C 419.601,289.119 428.601,289.786 437.5,291.5C 439.812,299.397 442.145,307.397 444.5,315.5C 440.253,314.356 435.92,313.689 431.5,313.5C 427.092,313.311 423.092,314.311 419.5,316.5C 415.925,307.774 412.925,298.774 410.5,289.5 Z"/></g>
<g><path style="opacity:0.007" fill="#e69f3c" d="M 400.5,285.5 C 401.167,285.5 401.5,285.833 401.5,286.5C 400.566,287.568 400.232,288.901 400.5,290.5C 399.711,290.217 399.044,289.717 398.5,289C 399.085,287.698 399.751,286.531 400.5,285.5 Z"/></g>
<g><path style="opacity:0.004" fill="#d18c37" d="M 370.5,287.5 C 371.833,288.167 371.833,288.167 370.5,287.5 Z"/></g>
<g><path style="opacity:0.999" fill="#ed8f29" d="M 362.5,260.5 C 364.8,260.522 365.967,261.522 366,263.5C 358.91,271.037 350.91,277.371 342,282.5C 341.36,284.265 341.527,285.932 342.5,287.5C 326.795,294.962 310.128,299.128 292.5,300C 275.437,300.937 258.437,300.437 241.5,298.5C 239.975,295.437 237.975,292.77 235.5,290.5C 236.449,289.848 237.615,289.514 239,289.5C 274.324,295.739 308.157,291.239 340.5,276C 347.742,272.205 354.075,267.205 359.5,261C 360.448,260.517 361.448,260.351 362.5,260.5 Z"/></g>
<g><path style="opacity:1" fill="#fcb049" d="M 358.5,406.5 C 361.309,401.555 364.143,396.555 367,391.5C 368.871,386.757 369.704,382.091 369.5,377.5C 371.782,372.04 372.616,366.373 372,360.5C 370.274,359.424 368.441,359.257 366.5,360C 359.193,388.644 340.86,404.311 311.5,407C 307.94,402.848 307.607,398.348 310.5,393.5C 308.347,389.62 305.847,389.62 303,393.5C 300.848,398.47 301.014,403.304 303.5,408C 300.167,408.667 296.833,408.667 293.5,408C 291.667,407.5 290.5,406.333 290,404.5C 289.599,399.399 289.932,394.399 291,389.5C 288.733,388.065 286.733,388.398 285,390.5C 283.149,394.619 281.982,398.952 281.5,403.5C 279.473,402.307 277.973,400.64 277,398.5C 274.953,388.428 278.453,380.928 287.5,376C 293.659,373.004 299.992,370.504 306.5,368.5C 315.905,369.8 324.572,372.967 332.5,378C 338.736,378.089 340.569,375.256 338,369.5C 332.175,363.338 325.009,360.005 316.5,359.5C 321.075,352.956 323.075,345.79 322.5,338C 320.833,337.333 319.167,337.333 317.5,338C 315.512,343.154 313.345,348.321 311,353.5C 309.647,354.685 308.48,356.019 307.5,357.5C 300.386,362.376 292.719,366.209 284.5,369C 271.509,376.149 266.509,386.982 269.5,401.5C 267.833,401.5 266.167,401.5 264.5,401.5C 257.21,367.047 249.543,332.713 241.5,298.5C 258.437,300.437 275.437,300.937 292.5,300C 310.128,299.128 326.795,294.962 342.5,287.5C 343.265,287.923 344.098,288.257 345,288.5C 347.727,286.94 350.56,285.607 353.5,284.5C 356.068,285.559 358.235,287.226 360,289.5C 390.904,328.712 405.737,373.379 404.5,423.5C 389.833,423.5 375.167,423.5 360.5,423.5C 361.012,417.612 360.345,411.945 358.5,406.5 Z"/></g>
<g><path style="opacity:0.004" fill="#ffe67e" d="M 365.5,283.5 C 366.833,283.5 367.5,284.167 367.5,285.5C 366.5,285.167 365.833,284.5 365.5,283.5 Z"/></g>
<g><path style="opacity:0.008" fill="#fbe093" d="M 400.5,280.5 C 400.5,281.5 400.5,282.5 400.5,283.5C 399.609,282.739 398.942,281.739 398.5,280.5C 398.97,279.537 399.637,279.537 400.5,280.5 Z"/></g>
<g><path style="opacity:0.004" fill="#d08933" d="M 366.5,276.5 C 367.833,277.167 367.833,277.167 366.5,276.5 Z"/></g>
<g><path style="opacity:0.004" fill="#de9236" d="M 378.5,270.5 C 379.833,271.167 379.833,271.167 378.5,270.5 Z"/></g>
<g><path style="opacity:1" fill="#e78723" d="M 408.5,268.5 C 418.602,268.535 427.935,271.201 436.5,276.5C 436.337,281.547 436.671,286.547 437.5,291.5C 428.601,289.786 419.601,289.119 410.5,289.5C 408.918,282.613 408.252,275.613 408.5,268.5 Z"/></g>
<g><path style="opacity:0.004" fill="#de923a" d="M 374.5,268.5 C 375.167,268.5 375.833,268.5 376.5,268.5C 375.833,269.833 375.167,269.833 374.5,268.5 Z"/></g>
<g><path style="opacity:0.004" fill="#d28b35" d="M 382.5,256.5 C 383.833,257.167 383.833,257.167 382.5,256.5 Z"/></g>
<g><path style="opacity:1" fill="#fcb14a" d="M 414.5,245.5 C 423.534,247.129 431.868,250.629 439.5,256C 440.71,257.039 441.71,258.206 442.5,259.5C 439.085,264.664 437.085,270.33 436.5,276.5C 427.935,271.201 418.602,268.535 408.5,268.5C 408.273,260.136 410.273,252.469 414.5,245.5 Z"/></g>
<g><path style="opacity:0.004" fill="#f4d174" d="M 159.5,252.5 C 160.401,253.29 161.068,254.29 161.5,255.5C 160.624,255.631 159.957,255.298 159.5,254.5C 158.45,253.571 158.45,252.905 159.5,252.5 Z"/></g>
<g><path style="opacity:0.004" fill="#d78f33" d="M 403.5,244.5 C 402.833,245.167 402.833,245.167 403.5,244.5 Z"/></g>
<g><path style="opacity:0.005" fill="#d89438" d="M 405.5,241.5 C 404.167,242.167 404.167,242.833 405.5,243.5C 405.5,244.167 405.167,244.5 404.5,244.5C 404.167,244.5 403.833,244.5 403.5,244.5C 403.215,242.712 403.548,241.045 404.5,239.5C 405.298,239.957 405.631,240.624 405.5,241.5 Z"/></g>
<g><path style="opacity:0.004" fill="#e39c39" d="M 409.5,235.5 C 409.5,236.167 409.167,236.5 408.5,236.5C 407.833,236.5 407.5,236.833 407.5,237.5C 406.957,237.44 406.624,237.107 406.5,236.5C 407.325,235.614 408.325,235.281 409.5,235.5 Z"/></g>
<g><path style="opacity:0.004" fill="#dc953c" d="M 393.5,232.5 C 393.56,231.957 393.893,231.624 394.5,231.5C 395.773,232.257 395.773,232.923 394.5,233.5C 393.833,233.5 393.5,233.167 393.5,232.5 Z"/></g>
<g><path style="opacity:1" fill="#e58622" d="M 442.5,259.5 C 441.71,258.206 440.71,257.039 439.5,256C 431.868,250.629 423.534,247.129 414.5,245.5C 420.631,228.769 432.297,222.602 449.5,227C 457.404,232.588 458.571,239.422 453,247.5C 449.247,251.385 445.747,255.385 442.5,259.5 Z"/></g>
<g><path style="opacity:0.004" fill="#f1b143" d="M 414.5,228.5 C 413.833,228.5 413.5,228.833 413.5,229.5C 411.025,229.253 411.025,228.587 413.5,227.5C 414.107,227.624 414.44,227.957 414.5,228.5 Z"/></g>
<g><path style="opacity:0.004" fill="#e1993c" d="M 390.5,226.5 C 391.833,227.167 391.833,227.167 390.5,226.5 Z"/></g>
<g><path style="opacity:0.004" fill="#dd993c" d="M 417.5,224.5 C 416.833,223.167 416.833,223.167 417.5,224.5 Z"/></g>
<g><path style="opacity:0.004" fill="#e49b3d" d="M 390.5,222.5 C 391.525,222.897 391.692,223.563 391,224.5C 390.536,223.906 390.369,223.239 390.5,222.5 Z"/></g>
<g><path style="opacity:0.004" fill="#e09b3f" d="M 421.5,221.5 C 420.833,220.167 420.833,220.167 421.5,221.5 Z"/></g>
<g><path style="opacity:0.004" fill="#e7a143" d="M 427.5,216.5 C 428.833,217.167 428.833,217.167 427.5,216.5 Z"/></g>
<g><path style="opacity:0.999" fill="#e48522" d="M 378.5,199.5 C 380.117,204.916 380.784,210.583 380.5,216.5C 369.269,220.323 357.936,220.49 346.5,217C 343.305,212.49 343.972,208.824 348.5,206C 357.727,204.868 366.893,203.368 376,201.5C 377.376,201.316 378.209,200.649 378.5,199.5 Z"/></g>
<g><path style="opacity:1" fill="#e48522" d="M 164.5,197.5 C 169.018,197.97 173.351,199.137 177.5,201C 181.225,209.342 178.392,213.176 169,212.5C 166.39,212.467 164.223,211.8 162.5,210.5C 162.426,206.016 163.093,201.683 164.5,197.5 Z"/></g>
<g><path style="opacity:1" fill="#fcb049" d="M 365.5,148.5 C 368.522,133.806 369.188,119.139 367.5,104.5C 365.936,98.4334 362.27,96.9334 356.5,100C 347.935,105.731 340.935,112.898 335.5,121.5C 334.504,121.414 333.671,121.748 333,122.5C 332.333,124.5 332.333,126.5 333,128.5C 357.728,145.937 372.894,169.603 378.5,199.5C 378.209,200.649 377.376,201.316 376,201.5C 366.893,203.368 357.727,204.868 348.5,206C 343.972,208.824 343.305,212.49 346.5,217C 357.936,220.49 369.269,220.323 380.5,216.5C 380.5,220.833 380.5,225.167 380.5,229.5C 368.553,227.869 356.553,227.369 344.5,228C 341.123,228.452 337.789,229.118 334.5,230C 333.594,231.699 333.261,233.533 333.5,235.5C 348.875,234.022 364.208,234.355 379.5,236.5C 378.196,242.782 376.029,248.782 373,254.5C 372.275,255.059 371.442,255.392 370.5,255.5C 358.227,249.075 345.227,245.075 331.5,243.5C 331.261,245.467 331.594,247.301 332.5,249C 343.086,251.58 353.086,255.413 362.5,260.5C 361.448,260.351 360.448,260.517 359.5,261C 354.075,267.205 347.742,272.205 340.5,276C 308.157,291.239 274.324,295.739 239,289.5C 237.615,289.514 236.449,289.848 235.5,290.5C 225.513,287.653 215.513,284.487 205.5,281C 189.156,274.652 176.489,263.986 167.5,249C 167.905,248.055 168.572,247.388 169.5,247C 174.523,246.107 179.523,245.107 184.5,244C 185.833,242.333 185.833,240.667 184.5,239C 177.446,238.643 170.446,239.143 163.5,240.5C 162.728,236.548 162.395,232.548 162.5,228.5C 168.612,228.268 174.612,228.934 180.5,230.5C 186.763,229.519 187.096,227.352 181.5,224C 174.979,222.058 168.313,221.225 161.5,221.5C 161.185,217.629 161.518,213.962 162.5,210.5C 164.223,211.8 166.39,212.467 169,212.5C 178.392,213.176 181.225,209.342 177.5,201C 173.351,199.137 169.018,197.97 164.5,197.5C 170.04,167.07 185.207,142.737 210,124.5C 210.387,121.696 209.221,119.696 206.5,118.5C 200.952,110.453 193.952,103.953 185.5,99C 181.156,97.5243 178.822,99.0243 178.5,103.5C 176.999,110.27 176.333,117.27 176.5,124.5C 176.311,131.311 176.978,137.977 178.5,144.5C 176.689,147.444 174.856,150.444 173,153.5C 171.109,149.389 170.109,145.056 170,140.5C 169.094,126.786 169.427,113.119 171,99.5C 171.786,94.0473 174.286,89.5473 178.5,86C 185.473,85.7678 191.806,87.7678 197.5,92C 207.392,98.8861 216.392,106.886 224.5,116C 227.157,116.175 229.824,116.008 232.5,115.5C 227.81,125.633 226.31,136.299 228,147.5C 229.077,152.115 231.91,153.615 236.5,152C 238.049,150.786 239.215,149.286 240,147.5C 239.923,135.386 242.09,123.719 246.5,112.5C 249.625,111.521 252.958,111.187 256.5,111.5C 251.106,124.314 249.272,137.648 251,151.5C 254.613,158.148 258.279,158.148 262,151.5C 264.259,137.797 267.759,124.464 272.5,111.5C 277.032,111.182 281.366,111.515 285.5,112.5C 278.121,123.682 274.954,136.016 276,149.5C 279.182,153.057 282.682,153.391 286.5,150.5C 289.266,137.983 293.933,126.316 300.5,115.5C 305.052,116.937 309.719,117.437 314.5,117C 327.918,104.123 342.918,93.4564 359.5,85C 367.218,83.0305 372.384,85.8639 375,93.5C 375.794,96.4715 376.461,99.4715 377,102.5C 377.667,115.5 377.667,128.5 377,141.5C 376.153,148.289 374.82,154.955 373,161.5C 370.488,157.139 367.988,152.806 365.5,148.5 Z"/></g>
<g><path style="opacity:1" fill="#3a1a05" d="M 245.5,223.5 C 251.732,222.939 257.732,223.772 263.5,226C 266.218,229.302 266.052,232.469 263,235.5C 261.019,237.657 258.686,239.324 256,240.5C 254.862,250.687 259.362,254.52 269.5,252C 272.074,249.637 274.741,247.47 277.5,245.5C 280.944,246.952 281.444,249.286 279,252.5C 273.567,258.866 266.734,261.032 258.5,259C 256.359,257.692 254.359,256.192 252.5,254.5C 246.982,258.686 240.982,259.519 234.5,257C 229.715,254.119 228.049,250.119 229.5,245C 230.944,244.219 232.277,244.386 233.5,245.5C 237.462,253.932 242.296,254.598 248,247.5C 248.667,245.167 248.667,242.833 248,240.5C 244.279,237.793 241.779,234.293 240.5,230C 241.242,227.095 242.909,224.928 245.5,223.5 Z"/></g>
<g><path style="opacity:1" fill="#3a1b06" d="M 293.5,205.5 C 301.018,205.519 304.684,209.353 304.5,217C 305.024,224.165 301.857,228.332 295,229.5C 289.758,227.374 287.258,223.374 287.5,217.5C 287.411,212.344 289.411,208.344 293.5,205.5 Z"/></g>
<g><path style="opacity:1" fill="#3a1b05" d="M 214.5,204.5 C 219.421,204.043 222.921,206.043 225,210.5C 226.347,216.598 225.18,222.098 221.5,227C 215.924,229.792 212.09,228.292 210,222.5C 209.333,218.167 209.333,213.833 210,209.5C 211.707,207.963 213.207,206.296 214.5,204.5 Z"/></g>
<g><path style="opacity:1" fill="#3e1f0a" d="M 293.5,179.5 C 299.421,178.877 304.254,180.877 308,185.5C 308.854,187.607 308.188,188.941 306,189.5C 302.847,187.893 299.513,186.893 296,186.5C 293.433,187.139 290.933,187.639 288.5,188C 287.326,183.643 288.992,180.81 293.5,179.5 Z"/></g>
<g><path style="opacity:0.999" fill="#3a1c07" d="M 211.5,178.5 C 216.351,177.784 220.518,179.117 224,182.5C 224.884,184.641 224.384,186.307 222.5,187.5C 220.137,186.323 217.637,185.657 215,185.5C 212.103,186.463 209.27,187.297 206.5,188C 205.446,186.612 205.28,185.112 206,183.5C 207.812,181.7 209.645,180.033 211.5,178.5 Z"/></g>
<g><path style="opacity:1" fill="#e58522" d="M 246.5,112.5 C 242.09,123.719 239.923,135.386 240,147.5C 239.215,149.286 238.049,150.786 236.5,152C 231.91,153.615 229.077,152.115 228,147.5C 226.31,136.299 227.81,125.633 232.5,115.5C 236.857,113.581 241.523,112.581 246.5,112.5 Z"/></g>
<g><path style="opacity:1" fill="#e68521" d="M 285.5,112.5 C 290.703,112.771 295.703,113.771 300.5,115.5C 293.933,126.316 289.266,137.983 286.5,150.5C 282.682,153.391 279.182,153.057 276,149.5C 274.954,136.016 278.121,123.682 285.5,112.5 Z"/></g>
<g><path style="opacity:1" fill="#e68521" d="M 256.5,111.5 C 261.833,111.5 267.167,111.5 272.5,111.5C 267.759,124.464 264.259,137.797 262,151.5C 258.279,158.148 254.613,158.148 251,151.5C 249.272,137.648 251.106,124.314 256.5,111.5 Z"/></g>
<g><path style="opacity:0.999" fill="#f18c61" d="M 367.5,104.5 C 369.188,119.139 368.522,133.806 365.5,148.5C 359.869,141.202 353.536,134.535 346.5,128.5C 351.479,120.188 358.145,113.521 366.5,108.5C 367.429,107.311 367.762,105.978 367.5,104.5 Z"/></g>
<g><path style="opacity:0.999" fill="#f18d5f" d="M 178.5,103.5 C 178.351,104.552 178.517,105.552 179,106.5C 186.21,111.602 192.043,117.936 196.5,125.5C 189.797,131.202 183.797,137.536 178.5,144.5C 176.978,137.977 176.311,131.311 176.5,124.5C 176.333,117.27 176.999,110.27 178.5,103.5 Z"/></g>
<g><path style="opacity:0.004" fill="#d68c34" d="M 309.5,106.5 C 310.833,107.167 310.833,107.167 309.5,106.5 Z"/></g>
<g><path style="opacity:0.004" fill="#dd9438" d="M 312.5,104.5 C 311.833,105.167 311.833,105.167 312.5,104.5 Z"/></g>
<g><path style="opacity:0.004" fill="#e0973c" d="M 301.5,105.5 C 301.511,102.999 302.178,102.832 303.5,105C 302.906,105.464 302.239,105.631 301.5,105.5 Z"/></g>
<g><path style="opacity:0.004" fill="#e29c3e" d="M 231.5,103.5 C 232.773,104.077 232.773,104.743 231.5,105.5C 230.537,105.03 230.537,104.363 231.5,103.5 Z"/></g>
<g><path style="opacity:0.004" fill="#dd963a" d="M 312.5,103.5 C 313.833,104.167 313.833,104.167 312.5,103.5 Z"/></g>
<g><path style="opacity:0.004" fill="#e39a3c" d="M 298.5,104.5 C 298.897,103.475 299.563,103.308 300.5,104C 299.906,104.464 299.239,104.631 298.5,104.5 Z"/></g>
<g><path style="opacity:0.004" fill="#e4ad56" d="M 239.5,104.5 C 239.5,105.167 239.167,105.5 238.5,105.5C 237.833,104.167 237.167,104.167 236.5,105.5C 236.167,105.5 235.833,105.5 235.5,105.5C 235.389,104.883 235.056,104.383 234.5,104C 236.387,103.22 238.054,103.387 239.5,104.5 Z"/></g>
<g><path style="opacity:0.004" fill="#f0bd49" d="M 225.5,104.5 C 225.56,103.957 225.893,103.624 226.5,103.5C 227.773,104.257 227.773,104.923 226.5,105.5C 225.833,105.5 225.5,105.167 225.5,104.5 Z"/></g>
<g><path style="opacity:0.999" fill="#e2733f" d="M 367.5,104.5 C 367.762,105.978 367.429,107.311 366.5,108.5C 358.145,113.521 351.479,120.188 346.5,128.5C 343.003,125.917 339.336,123.584 335.5,121.5C 340.935,112.898 347.935,105.731 356.5,100C 362.27,96.9334 365.936,98.4334 367.5,104.5 Z"/></g>
<g><path style="opacity:0.004" fill="#e5a640" d="M 317.5,102.5 C 315.663,102.361 315.33,101.694 316.5,100.5C 317.298,100.957 317.631,101.624 317.5,102.5 Z"/></g>
<g><path style="opacity:0.004" fill="#e69c3e" d="M 263.5,100.5 C 264.833,101.167 264.833,101.167 263.5,100.5 Z"/></g>
<g><path style="opacity:0.004" fill="#e79b3e" d="M 261.5,100.5 C 262.833,101.167 262.833,101.167 261.5,100.5 Z"/></g>
<g><path style="opacity:1" fill="#e2743d" d="M 206.5,118.5 C 202.817,120.341 199.484,122.674 196.5,125.5C 192.043,117.936 186.21,111.602 179,106.5C 178.517,105.552 178.351,104.552 178.5,103.5C 178.822,99.0243 181.156,97.5243 185.5,99C 193.952,103.953 200.952,110.453 206.5,118.5 Z"/></g>
<g><path style="opacity:0.004" fill="#e7a03f" d="M 274.5,99.5 C 275.833,100.167 275.833,100.167 274.5,99.5 Z"/></g>
<g><path style="opacity:0.004" fill="#f7cc71" d="M 221.5,100.5 C 221.56,99.9569 221.893,99.6236 222.5,99.5C 223.386,100.325 223.719,101.325 223.5,102.5C 222.833,102.5 222.5,102.167 222.5,101.5C 221.833,101.5 221.5,101.167 221.5,100.5 Z"/></g>
<g><path style="opacity:0.004" fill="#ec9e3e" d="M 324.5,96.5 C 323.761,96.631 323.094,96.4643 322.5,96C 323.437,95.3083 324.103,95.475 324.5,96.5 Z"/></g>
<g><path style="opacity:0.004" fill="#e49d3e" d="M 217.5,96.5 C 217.897,95.475 218.563,95.3083 219.5,96C 218.906,96.4643 218.239,96.631 217.5,96.5 Z"/></g>
<g><path style="opacity:0.004" fill="#f1b267" d="M 329.5,92.5 C 328.833,92.5 328.5,92.8333 328.5,93.5C 328.5,94.1667 328.167,94.5 327.5,94.5C 327.281,93.325 327.614,92.325 328.5,91.5C 329.107,91.6236 329.44,91.9569 329.5,92.5 Z"/></g>
<g><path style="opacity:0.004" fill="#df993f" d="M 213.5,91.5 C 214.833,92.1667 214.833,92.1667 213.5,91.5 Z"/></g>
<g><path style="opacity:0.004" fill="#d58f36" d="M 202.5,83.5 C 203.833,84.1667 203.833,84.1667 202.5,83.5 Z"/></g>
<g><path style="opacity:0.004" fill="#e69f40" d="M 343.5,79.5 C 344.833,80.1667 344.833,80.1667 343.5,79.5 Z"/></g>
<g><path style="opacity:0.004" fill="#e2993d" d="M 198.5,79.5 C 199.833,80.1667 199.833,80.1667 198.5,79.5 Z"/></g>
<g><path style="opacity:0.004" fill="#e0993b" d="M 406.5,355.5 C 407.833,356.167 407.833,356.167 406.5,355.5 Z"/></g>
<g><path style="opacity:0.004" fill="#eba440" d="M 459.5,358.5 C 460.833,359.167 460.833,359.167 459.5,358.5 Z"/></g>
<g><path style="opacity:0.999" fill="#e38321" d="M 316.5,359.5 C 325.009,360.005 332.175,363.338 338,369.5C 340.569,375.256 338.736,378.089 332.5,378C 324.572,372.967 315.905,369.8 306.5,368.5C 309.808,365.529 313.141,362.529 316.5,359.5 Z"/></g>
<g><path style="opacity:0.007" fill="#e8a24c" d="M 56.5,360.5 C 57.1667,360.5 57.5,360.833 57.5,361.5C 56.1667,361.833 56.1667,362.167 57.5,362.5C 57.5,362.833 57.5,363.167 57.5,363.5C 56.1667,364.167 56.1667,364.833 57.5,365.5C 57.6068,367.379 57.1068,367.712 56,366.5C 55.7489,364.567 55.2489,362.734 54.5,361C 55.0944,360.536 55.7611,360.369 56.5,360.5 Z"/></g>
<g><path style="opacity:0.998" fill="#f8d99e" d="M 130.5,347.5 C 135,347.164 136.833,349.164 136,353.5C 131.833,357 127.667,360.5 123.5,364C 127.833,367.167 132.167,370.333 136.5,373.5C 137.631,375.074 137.798,376.741 137,378.5C 136.107,379.081 135.107,379.415 134,379.5C 127.607,376.122 121.44,372.289 115.5,368C 114.409,365.936 114.242,363.769 115,361.5C 120.362,356.968 125.528,352.301 130.5,347.5 Z"/></g>
<g><path style="opacity:0.004" fill="#efa848" d="M 458.5,367.5 C 459.833,368.167 459.833,368.167 458.5,367.5 Z"/></g>
<g><path style="opacity:1" fill="#e58622" d="M 425.5,355.5 C 433.914,355.937 441.914,357.937 449.5,361.5C 446.473,385.572 434.473,403.572 413.5,415.5C 412.413,405.843 411.913,396.176 412,386.5C 415.503,382.853 418.337,378.853 420.5,374.5C 423.041,368.412 424.707,362.078 425.5,355.5 Z"/></g>
<g><path style="opacity:1" fill="#fcb148" d="M 420.5,374.5 C 427.752,374.748 433.919,377.414 439,382.5C 439.667,383.167 439.667,383.833 439,384.5C 428.41,389.785 422.243,386.452 420.5,374.5 Z"/></g>
<g><path style="opacity:0.004" fill="#de9c40" d="M 60.5,377.5 C 61.1667,377.5 61.5,377.833 61.5,378.5C 60.71,379.609 60.21,380.942 60,382.5C 59.2204,380.613 59.3871,378.946 60.5,377.5 Z"/></g>
<g><path style="opacity:1" fill="#e08523" d="M 369.5,377.5 C 369.704,382.091 368.871,386.757 367,391.5C 364.143,396.555 361.309,401.555 358.5,406.5C 355.304,404.103 351.638,402.936 347.5,403C 356.825,396.178 364.158,387.678 369.5,377.5 Z"/></g>
<g><path style="opacity:0.039" fill="#deb158" d="M 64.5,392.5 C 64.5569,393.609 64.8902,394.609 65.5,395.5C 63.4482,394.947 63.1148,393.947 64.5,392.5 Z"/></g>
<g><path style="opacity:0.004" fill="#e39a3f" d="M 63.5,396.5 C 64.525,396.897 64.6917,397.563 64,398.5C 63.5357,397.906 63.369,397.239 63.5,396.5 Z"/></g>
<g><path style="opacity:0.004" fill="#e09c42" d="M 445.5,398.5 C 446.833,399.167 446.833,399.167 445.5,398.5 Z"/></g>
<g><path style="opacity:0.004" fill="#de9638" d="M 66.5,409.5 C 67.8333,410.167 67.8333,410.167 66.5,409.5 Z"/></g>
<g><path style="opacity:1" fill="#584130" d="M 266.5,408.5 C 271.757,407.521 276.09,409.021 279.5,413C 275.898,414.076 272.231,414.91 268.5,415.5C 267.579,413.223 266.913,410.89 266.5,408.5 Z"/></g>
<g><path style="opacity:0.004" fill="#f7cd62" d="M 68.5,411.5 C 68.8333,412.167 69.1667,412.833 69.5,413.5C 67.5759,413.289 67.2426,412.623 68.5,411.5 Z"/></g>
<g><path style="opacity:1" fill="#614d3c" d="M 342.5,410.5 C 346.106,410.211 349.606,410.544 353,411.5C 353.667,414.5 353.667,417.5 353,420.5C 351.764,422.538 349.931,423.705 347.5,424C 321.391,427.549 295.391,431.715 269.5,436.5C 270.733,432.143 270.733,427.476 269.5,422.5C 294.042,419.021 318.375,415.021 342.5,410.5 Z"/></g>
<g><path style="opacity:0.004" fill="#d89136" d="M 72.5,422.5 C 73.1667,422.5 73.5,422.833 73.5,423.5C 72.1667,424.167 72.1667,424.833 73.5,425.5C 73.8333,426.167 74.1667,426.833 74.5,427.5C 73.5,427.5 72.5,427.5 71.5,427.5C 71.2155,425.585 71.5489,423.919 72.5,422.5 Z"/></g>
<g><path style="opacity:1" fill="#5c4636" d="M 261.5,428.5 C 263.354,432.557 262.021,435.391 257.5,437C 200.823,437.472 144.156,436.805 87.5,435C 85.6385,433.972 84.3052,432.472 83.5,430.5C 133.837,429.512 184.17,429.846 234.5,431.5C 241.833,431.333 249.167,431.167 256.5,431C 258.315,430.243 259.981,429.41 261.5,428.5 Z"/></g>
<g><path style="opacity:0.004" fill="#d5913a" d="M 339.5,433.5 C 339.833,433.5 340.167,433.5 340.5,433.5C 340.842,434.338 341.508,434.672 342.5,434.5C 341.053,435.885 340.053,435.552 339.5,433.5 Z"/></g>
<g><path style="opacity:0.004" fill="#ca7f2e" d="M 330.5,435.5 C 331.833,436.167 331.833,436.167 330.5,435.5 Z"/></g>
<g><path style="opacity:0.012" fill="#eba742" d="M 76.5,436.5 C 77.3382,436.842 77.6716,437.508 77.5,438.5C 77.19,439.738 76.69,439.738 76,438.5C 75.3083,437.563 75.475,436.897 76.5,436.5 Z"/></g>
<g><path style="opacity:0.004" fill="#e6a038" d="M 311.5,437.5 C 312.263,438.268 313.263,438.768 314.5,439C 312.288,439.789 310.288,439.622 308.5,438.5C 309.609,438.443 310.609,438.11 311.5,437.5 Z"/></g>
<g><path style="opacity:0.008" fill="#da9b3e" d="M 79.5,440.5 C 81.0618,440.733 82.3951,441.4 83.5,442.5C 83.5,442.833 83.5,443.167 83.5,443.5C 82.1667,443.5 80.8333,443.5 79.5,443.5C 79.5,442.5 79.5,441.5 79.5,440.5 Z"/></g>
<g><path style="opacity:0.005" fill="#d99548" d="M 287.5,441.5 C 288.609,442.29 289.942,442.79 291.5,443C 288.961,443.796 286.628,443.629 284.5,442.5C 285.391,441.89 286.391,441.557 287.5,441.5 Z"/></g>
<g><path style="opacity:0.004" fill="#ca822a" d="M 83.5,443.5 C 83.8333,443.5 84.1667,443.5 84.5,443.5C 84.3147,444.17 83.9813,444.17 83.5,443.5 Z"/></g>
<g><path style="opacity:0.004" fill="#d08732" d="M 86.5,444.5 C 87.8333,445.167 87.8333,445.167 86.5,444.5 Z"/></g>
<g><path style="opacity:0.004" fill="#ce842e" d="M 143.5,445.5 C 144.833,446.167 144.833,446.167 143.5,445.5 Z"/></g>
<g><path style="opacity:0.004" fill="#d0842f" d="M 147.5,445.5 C 148.833,446.167 148.833,446.167 147.5,445.5 Z"/></g>
<g><path style="opacity:0.004" fill="#cf832e" d="M 149.5,446.5 C 150.251,445.427 151.251,445.26 152.5,446C 151.552,446.483 150.552,446.649 149.5,446.5 Z"/></g>
<g><path style="opacity:0.004" fill="#ce822f" d="M 154.5,446.5 C 155.5,445.167 156.5,445.167 157.5,446.5C 156.5,447.833 155.5,447.833 154.5,446.5 Z"/></g>
<g><path style="opacity:0.004" fill="#cf842e" d="M 268.5,445.5 C 269.167,445.5 269.5,445.833 269.5,446.5C 269.167,446.167 268.833,445.833 268.5,445.5 Z"/></g>
<g><path style="opacity:0.008" fill="#cc812d" d="M 270.5,445.5 C 271.833,446.167 271.833,446.167 270.5,445.5 Z"/></g>
<g><path style="opacity:0.004" fill="#ce812f" d="M 154.5,446.5 C 153.833,447.167 153.833,447.167 154.5,446.5 Z"/></g>
<g><path style="opacity:0.004" fill="#d9923f" d="M 165.5,444.5 C 166.167,444.5 166.833,444.5 167.5,444.5C 169.5,445.833 171.5,445.833 173.5,444.5C 176.545,444.508 179.545,444.841 182.5,445.5C 182.611,446.117 182.944,446.617 183.5,447C 182.167,447.167 180.833,447.333 179.5,447.5C 172.159,447.172 164.826,446.838 157.5,446.5C 160.28,445.922 162.947,445.255 165.5,444.5 Z"/></g>
<g><path style="opacity:0.004" fill="#cc8531" d="M 185.5,446.5 C 184.833,447.167 184.833,447.167 185.5,446.5 Z"/></g>
<g><path style="opacity:0.004" fill="#d08433" d="M 187.5,446.5 C 188.239,446.369 188.906,446.536 189.5,447C 188.563,447.692 187.897,447.525 187.5,446.5 Z"/></g>
<g><path style="opacity:0.004" fill="#cf8531" d="M 190.5,446.5 C 191.833,447.167 191.833,447.167 190.5,446.5 Z"/></g>
<g><path style="opacity:0.004" fill="#cf842f" d="M 193.5,446.5 C 194.833,447.167 194.833,447.167 193.5,446.5 Z"/></g>
<g><path style="opacity:0.004" fill="#cd822f" d="M 195.5,447.5 C 197.966,446.366 200.633,446.199 203.5,447C 200.854,447.497 198.187,447.664 195.5,447.5 Z"/></g>
<g><path style="opacity:0.004" fill="#cf8430" d="M 204.5,447.5 C 204.897,446.475 205.563,446.308 206.5,447C 205.906,447.464 205.239,447.631 204.5,447.5 Z"/></g>
<g><path style="opacity:0.006" fill="#d6963f" d="M 211.5,445.5 C 212.167,445.5 212.833,445.5 213.5,445.5C 215.292,446.309 217.292,446.809 219.5,447C 215.5,447.667 211.5,447.667 207.5,447C 209.058,446.79 210.391,446.29 211.5,445.5 Z"/></g>
<g><path style="opacity:0.004" fill="#d0842f" d="M 220.5,447.5 C 222.628,446.371 224.961,446.204 227.5,447C 225.19,447.497 222.857,447.663 220.5,447.5 Z"/></g>
<g><path style="opacity:0.008" fill="#dc9439" d="M 244.5,445.5 C 244.833,445.5 245.167,445.5 245.5,445.5C 245.833,446.833 246.167,446.833 246.5,445.5C 249.57,445.368 252.57,445.701 255.5,446.5C 247.344,447.657 239.01,447.823 230.5,447C 235.351,446.826 240.018,446.326 244.5,445.5 Z"/></g>
<g><path style="opacity:0.008" fill="#e2a139" d="M 263.5,445.5 C 263.611,446.117 263.944,446.617 264.5,447C 262.934,447.765 261.601,447.598 260.5,446.5C 261.391,445.89 262.391,445.557 263.5,445.5 Z"/></g>
<g><path style="opacity:0.004" fill="#cb822f" d="M 265.5,446.5 C 266.833,447.167 266.833,447.167 265.5,446.5 Z"/></g>
<g><path style="opacity:0.004" fill="#cb832e" d="M 269.5,446.5 C 269.833,446.5 270.167,446.5 270.5,446.5C 270.315,447.17 269.981,447.17 269.5,446.5 Z"/></g>
</svg>
